<svg xmlns="http://www.w3.org/2000/svg" viewBox="0 0 1000 163.24" width="1000" height="163" role="img" aria-label="HARNERY">
  <title>HARNERY</title>
  <g id="hny-wordmark">
    <path d="M 31.26,31.2 C 30.33,32.12 30.42,131.3 31.34,132.08 C 31.78,132.45 35.04,132.59 42.03,132.5 L 52.06,132.37 L 52.22,111.05 L 52.31,89.8 L 70.98,89.91 L 89.6,90.03 L 89.83,111.2 L 90.08,132.37 L 100.27,132.5 C 110.03,132.59 110.52,132.59 111.01,131.69 C 111.33,131 111.42,115.39 111.39,81.13 C 111.23,37.69 111.15,31.5 110.52,31.11 C 109.41,30.41 91.14,30.5 90.42,31.2 C 89.98,31.64 89.83,36.74 89.83,51.16 L 89.83,70.56 L 71.09,70.56 L 52.31,70.56 L 52.31,51.16 C 52.31,36.74 52.17,31.64 51.75,31.2 C 50.93,30.41 32.07,30.41 31.26,31.2 M 204.59,31.7 C 203.69,33.08 197.05,50.4 185.55,81.13 C 180.61,94.51 174.29,111.25 171.66,118.37 C 167.9,128.33 166.9,131.44 167.31,131.92 C 168.09,132.84 189.02,132.89 189.72,131.98 C 190.02,131.69 190.61,130.21 191.08,128.76 C 191.56,127.3 193.01,123.02 194.31,119.23 L 196.71,112.4 L 215.86,112.4 L 235,112.4 L 238.32,122.4 L 241.58,132.37 L 252.89,132.37 C 263.44,132.37 264.18,132.31 264.34,131.5 C 264.43,131 263.44,127.64 262.13,124.03 C 259.86,117.92 252.55,97.82 244.66,76.09 C 242.84,71.04 240.67,65.22 239.9,63.09 C 231.3,39.73 229.37,34.53 229.09,33.52 C 228.22,30.63 228.25,30.63 216.29,30.63 C 205.42,30.63 205.26,30.63 204.59,31.7 M 218.59,62.93 C 219.93,66.99 222.93,75.64 225.19,82.19 L 229.28,94.12 L 216.1,94.12 C 208.84,94.12 202.87,93.98 202.87,93.73 C 202.87,93.53 205.37,86.03 208.45,77.04 C 211.52,68.05 214.42,59.54 214.84,58.19 C 215.26,56.79 215.72,55.65 215.86,55.65 C 216.01,55.65 217.26,58.97 218.59,62.93 M 325.61,31.25 C 325.18,31.79 325.02,43.34 325.13,82.14 L 325.27,132.37 L 335.33,132.5 C 342.3,132.59 345.57,132.45 346.02,132.08 C 346.53,131.64 346.69,128.23 346.69,113.57 L 346.69,95.57 L 352.65,95.57 L 358.57,95.57 L 365.54,107.98 C 369.38,114.76 374.11,123.09 376.01,126.49 L 379.43,132.59 L 390.94,132.59 C 401.1,132.59 402.42,132.5 402.67,131.83 C 402.97,131.07 396.08,118.51 385.3,100.17 C 382.81,95.99 380.89,92.49 380.94,92.44 C 381.02,92.38 382.81,91.52 384.91,90.47 C 391.25,87.39 395.8,82.05 398.49,74.31 C 400.12,69.73 400.55,60.69 399.4,55.2 C 397.19,44.78 390.01,36.74 379.87,33.33 C 373.57,31.2 371.4,31.05 348.37,30.78 C 329.28,30.58 326.09,30.63 325.61,31.25 M 370.74,50.9 C 375.4,53.09 377.61,56.21 378.23,61.61 C 378.92,67.43 376.26,72.81 371.36,75.46 C 368.18,77.23 364.23,77.77 354.76,77.77 L 346.69,77.77 L 346.69,63.53 L 346.69,49.29 L 357.41,49.48 C 367.69,49.62 368.18,49.68 370.74,50.9 M 465.79,31.4 C 465.11,32.09 465,37.32 465,81.8 C 465,123.47 465.11,131.59 465.68,132.08 C 466.1,132.45 469.28,132.59 476.11,132.5 L 485.94,132.37 L 486.17,99.47 L 486.4,66.51 L 496.09,81.66 C 501.43,89.98 508.01,100.31 510.75,104.7 C 513.47,109.02 518.59,117.07 522.01,122.49 L 528.26,132.37 L 538.84,132.5 C 544.61,132.54 549.51,132.45 549.76,132.22 C 550.4,131.59 550.29,32.09 549.62,31.31 C 549.17,30.78 547.18,30.63 539.85,30.63 C 534.79,30.63 530.31,30.88 529.94,31.11 C 529.3,31.5 529.16,35.78 528.98,63.43 L 528.73,95.32 L 526.83,92.19 C 520.36,81.6 488.38,31.73 487.76,31.2 C 487.18,30.78 484.16,30.63 476.74,30.63 C 468.08,30.63 466.4,30.72 465.79,31.4 M 619.69,31.4 C 619.01,32.09 618.92,37.32 618.92,81.8 C 618.92,119.76 619.07,131.59 619.51,132.03 C 619.93,132.45 627.92,132.59 652.45,132.59 C 683.9,132.59 684.82,132.54 685.3,131.69 C 685.6,131.16 685.77,127.49 685.77,123.21 C 685.77,118.93 685.6,115.29 685.3,114.76 C 684.82,113.88 684.04,113.85 662.67,113.85 L 640.57,113.85 L 640.57,101.82 L 640.57,89.8 L 659.7,89.8 C 673.95,89.8 678.99,89.64 679.44,89.22 C 679.81,88.83 680,86.19 680,80.42 C 680,74.65 679.81,72 679.44,71.61 C 678.99,71.18 673.95,71.04 659.7,71.04 L 640.57,71.04 L 640.57,60.49 L 640.57,49.98 L 642.62,49.68 C 643.74,49.48 653.46,49.39 664.23,49.48 C 679.81,49.53 683.95,49.43 684.54,48.95 C 685.68,48 685.68,32.49 684.54,31.4 C 683.86,30.72 680.25,30.63 652.11,30.63 C 623.97,30.63 620.36,30.72 619.69,31.4 M 752.21,31.31 C 751.82,31.79 751.71,45.45 751.77,82.14 L 751.91,132.37 L 762.25,132.37 L 772.6,132.37 L 772.74,113.94 L 772.83,95.51 L 778.94,95.66 L 785.04,95.8 L 789.57,103.74 C 792.07,108.12 796.55,116.1 799.59,121.53 C 802.56,126.97 805.25,131.69 805.54,132.03 C 805.98,132.45 808.67,132.59 817.23,132.5 C 827.32,132.37 828.39,132.28 828.55,131.53 C 828.69,130.77 823.39,120.86 814.92,106.15 C 808.9,95.6 807.43,92.92 807.43,92.49 C 807.43,92.24 808.58,91.62 809.98,91.06 C 820.23,86.86 825.94,76.84 825.89,63.09 C 825.8,43.82 814.78,33.04 793.29,31.11 C 790.39,30.88 780.05,30.63 770.37,30.63 C 756.09,30.63 752.63,30.78 752.21,31.31 M 795.68,50.4 C 801.47,52.19 804.59,56.65 804.59,63.09 C 804.59,69.2 801.27,74.31 795.98,76.37 C 793.52,77.39 792.4,77.48 783.18,77.48 L 773.08,77.53 L 772.94,63.43 L 772.83,49.39 L 782.66,49.39 C 791.22,49.39 792.85,49.53 795.68,50.4 M 879.63,31.34 C 879.13,31.93 880.58,34.76 887.69,47.33 C 892.4,55.75 899.32,68.15 903.04,74.87 C 906.79,81.66 910.48,88.3 911.32,89.7 L 912.81,92.24 L 912.81,111.87 C 912.81,127.99 912.9,131.64 913.48,132.08 C 913.9,132.45 917.18,132.59 924.15,132.5 L 934.2,132.37 L 934.45,112.4 L 934.7,92.44 L 945.21,74.4 C 970.47,31.11 969.76,32.46 969.23,31.64 C 968.79,30.95 967.25,30.88 957.97,30.78 C 952.06,30.67 946.95,30.78 946.66,31.02 C 946.38,31.2 941.37,40.12 935.51,50.85 C 929.67,61.52 924.74,70.32 924.54,70.42 C 924.15,70.51 918.81,60.74 906.95,38.44 C 904.91,34.56 903,31.31 902.61,31.05 C 902.26,30.81 897.07,30.63 891.11,30.63 C 882.11,30.63 880.1,30.78 879.63,31.34" fill="#212931"/>
  </g>
</svg>
