<svg xmlns="http://www.w3.org/2000/svg" viewBox="0 0 1000 1000" width="1000" height="1000" role="img" aria-label="HARNERY emblem"><title>HARNERY emblem</title><defs><linearGradient id="hny-orange" x1="0" y1="0" x2="0" y2="1"><stop offset="0" stop-color="#FB6E26"/><stop offset="0.14" stop-color="#F25A0E"/><stop offset="0.86" stop-color="#EA5208"/><stop offset="1" stop-color="#CD4705"/></linearGradient><linearGradient id="hny-teal" x1="0" y1="0" x2="0" y2="1"><stop offset="0" stop-color="#0F8497"/><stop offset="0.14" stop-color="#06738A"/><stop offset="0.86" stop-color="#04657A"/><stop offset="1" stop-color="#024250"/></linearGradient><linearGradient id="hny-strap" x1="0" y1="0" x2="0" y2="1"><stop offset="0" stop-color="#454E56"/><stop offset="0.5" stop-color="#353C43"/><stop offset="1" stop-color="#232931"/></linearGradient><filter id="hny-shadow" color-interpolation-filters="sRGB" x="-25%" y="-25%" width="150%" height="150%"><feGaussianBlur in="SourceAlpha" stdDeviation="6.61"/><feOffset dx="0" dy="5.79"/><feComponentTransfer><feFuncA type="linear" slope="0.26"/></feComponentTransfer><feMerge><feMergeNode/><feMergeNode in="SourceGraphic"/></feMerge></filter><clipPath id="hny-strap1-clip"><path d="M 806.58,304.86 Q 806.58,290.66 793.97,297.22 L 206.02,562.9 Q 193.43,569.45 193.43,583.64 L 193.43,708.84 Q 193.43,723.03 206.02,716.48 L 793.97,450.81 Q 806.58,444.26 806.58,430.06 L 806.58,304.86 Z"/></clipPath><clipPath id="hny-strap2-clip"><path d="M 193.43,303.63 Q 193.43,289.44 206.02,295.99 L 793.97,561.65 Q 806.58,568.21 806.58,582.4 L 806.58,707.61 Q 806.58,721.8 793.97,715.25 L 206.02,449.57 Q 193.43,443.01 193.43,428.82 L 193.43,303.63 Z"/></clipPath><clipPath id="hny-otop-clip"><rect x="200.86" y="119.77" width="151.16" height="288.68" rx="5.79"/></clipPath><clipPath id="hny-obot-clip"><rect x="200.86" y="608.34" width="151.16" height="261.85" rx="5.79"/></clipPath><clipPath id="hny-ttop-clip"><rect x="657.27" y="119.77" width="143.92" height="288.68" rx="5.79"/></clipPath><clipPath id="hny-tbot-clip"><rect x="657.27" y="608.34" width="143.92" height="261.85" rx="5.79"/></clipPath></defs><g id="hny-emblem"><g filter="url(#hny-shadow)"><rect x="200.86" y="119.77" width="151.16" height="288.68" rx="5.79" fill="url(#hny-orange)"/><g clip-path="url(#hny-otop-clip)"><polygon points="200.86,119.77 352.01,119.77 340.18,131.58 200.86,131.58" fill="#FFA66B" opacity="0.24"/><polygon points="352.01,119.77 352.01,408.45 340.18,408.45 340.18,131.58" fill="#8C3203" opacity="0.4"/></g><rect x="200.86" y="608.34" width="151.16" height="261.85" rx="5.79" fill="url(#hny-orange)"/><g clip-path="url(#hny-obot-clip)"><polygon points="352.01,608.34 352.01,870.19 340.18,870.19 340.18,608.34" fill="#8C3203" opacity="0.4"/></g><rect x="657.27" y="119.77" width="143.92" height="288.68" rx="5.79" fill="url(#hny-teal)"/><g clip-path="url(#hny-ttop-clip)"><polygon points="657.27,119.77 801.21,119.77 789.38,131.58 657.27,131.58" fill="#5BBACB" opacity="0.22"/><polygon points="801.21,119.77 801.21,408.45 789.38,408.45 789.38,131.58" fill="#02333E" opacity="0.44"/></g><rect x="657.27" y="608.34" width="143.92" height="261.85" rx="5.79" fill="url(#hny-teal)"/><g clip-path="url(#hny-tbot-clip)"><polygon points="801.21,608.34 801.21,870.19 789.38,870.19 789.38,608.34" fill="#02333E" opacity="0.44"/></g></g><g filter="url(#hny-shadow)"><g clip-path="url(#hny-strap2-clip)"><polygon points="193.43,289.44 806.58,568.21 806.58,721.8 193.43,443.01" fill="url(#hny-strap)"/><polygon points="193.43,289.44 806.58,568.21 806.58,582.03 193.43,303.25" fill="#5A636B" opacity="0.5"/><polygon points="193.43,423.43 806.58,702.2 806.58,721.8 193.43,443.01" fill="#14191E" opacity="0.6"/></g></g><g filter="url(#hny-shadow)"><g clip-path="url(#hny-strap1-clip)"><polygon points="806.58,290.66 193.43,569.45 193.43,723.03 806.58,444.26" fill="url(#hny-strap)"/><polygon points="806.58,290.66 193.43,569.45 193.43,583.26 806.58,304.49" fill="#5A636B" opacity="0.5"/><polygon points="193.43,703.44 806.58,424.67 806.58,444.26 193.43,723.03" fill="#14191E" opacity="0.6"/></g></g></g></svg>